<svg width="170" height="52" viewBox="0 0 170 52" fill="none" xmlns="http://www.w3.org/2000/svg">
<path d="M72.992 37.288C71.5413 37.288 70.24 37.032 69.088 36.52C67.936 35.9867 67.0187 35.272 66.336 34.376C65.6747 33.48 65.312 32.488 65.248 31.4H69.76C69.8453 32.0827 70.176 32.648 70.752 33.096C71.3493 33.544 72.0853 33.768 72.96 33.768C73.8133 33.768 74.4747 33.5973 74.944 33.256C75.4347 32.9147 75.68 32.4773 75.68 31.944C75.68 31.368 75.3813 30.9413 74.784 30.664C74.208 30.3653 73.28 30.0453 72 29.704C70.6773 29.384 69.5893 29.0533 68.736 28.712C67.904 28.3707 67.1787 27.848 66.56 27.144C65.9627 26.44 65.664 25.4907 65.664 24.296C65.664 23.3147 65.9413 22.4187 66.496 21.608C67.072 20.7973 67.8827 20.1573 68.928 19.688C69.9947 19.2187 71.2427 18.984 72.672 18.984C74.784 18.984 76.4693 19.5173 77.728 20.584C78.9867 21.6293 79.68 23.048 79.808 24.84H75.52C75.456 24.136 75.1573 23.5813 74.624 23.176C74.112 22.7493 73.4187 22.536 72.544 22.536C71.7333 22.536 71.104 22.6853 70.656 22.984C70.2293 23.2827 70.016 23.6987 70.016 24.232C70.016 24.8293 70.3147 25.288 70.912 25.608C71.5093 25.9067 72.4373 26.216 73.696 26.536C74.976 26.856 76.032 27.1867 76.864 27.528C77.696 27.8693 78.4107 28.4027 79.008 29.128C79.6267 29.832 79.9467 30.7707 79.968 31.944C79.968 32.968 79.68 33.8853 79.104 34.696C78.5493 35.5067 77.7387 36.1467 76.672 36.616C75.6267 37.064 74.4 37.288 72.992 37.288ZM88.8615 22.952V31.528C88.8615 32.1253 89.0002 32.5627 89.2775 32.84C89.5762 33.096 90.0668 33.224 90.7495 33.224H92.8295V37H90.0135C86.2375 37 84.3495 35.1653 84.3495 31.496V22.952H82.2375V19.272H84.3495V14.888H88.8615V19.272H92.8295V22.952H88.8615ZM103.924 37.288C102.217 37.288 100.681 36.9147 99.3158 36.168C97.9504 35.4 96.8731 34.3227 96.0838 32.936C95.3158 31.5493 94.9318 29.9493 94.9318 28.136C94.9318 26.3227 95.3264 24.7227 96.1158 23.336C96.9264 21.9493 98.0251 20.8827 99.4118 20.136C100.798 19.368 102.345 18.984 104.052 18.984C105.758 18.984 107.305 19.368 108.692 20.136C110.078 20.8827 111.166 21.9493 111.956 23.336C112.766 24.7227 113.172 26.3227 113.172 28.136C113.172 29.9493 112.756 31.5493 111.924 32.936C111.113 34.3227 110.004 35.4 108.596 36.168C107.209 36.9147 105.652 37.288 103.924 37.288ZM103.924 33.384C104.734 33.384 105.492 33.192 106.196 32.808C106.921 32.4027 107.497 31.8053 107.924 31.016C108.35 30.2267 108.564 29.2667 108.564 28.136C108.564 26.4507 108.116 25.16 107.22 24.264C106.345 23.3467 105.268 22.888 103.988 22.888C102.708 22.888 101.63 23.3467 100.756 24.264C99.9024 25.16 99.4758 26.4507 99.4758 28.136C99.4758 29.8213 99.8918 31.1227 100.724 32.04C101.577 32.936 102.644 33.384 103.924 33.384ZM120.938 22.024C121.514 21.0853 122.261 20.3493 123.178 19.816C124.117 19.2827 125.183 19.016 126.378 19.016V23.72H125.194C123.786 23.72 122.719 24.0507 121.994 24.712C121.29 25.3733 120.938 26.5253 120.938 28.168V37H116.458V19.272H120.938V22.024ZM151.412 19.016C153.588 19.016 155.337 19.688 156.66 21.032C158.004 22.3547 158.676 24.2107 158.676 26.6V37H154.196V27.208C154.196 25.8213 153.844 24.7653 153.14 24.04C152.436 23.2933 151.476 22.92 150.26 22.92C149.044 22.92 148.073 23.2933 147.348 24.04C146.644 24.7653 146.292 25.8213 146.292 27.208V37H141.812V27.208C141.812 25.8213 141.46 24.7653 140.756 24.04C140.052 23.2933 139.092 22.92 137.876 22.92C136.638 22.92 135.657 23.2933 134.932 24.04C134.228 24.7653 133.876 25.8213 133.876 27.208V37H129.396V19.272H133.876V21.416C134.452 20.6693 135.188 20.0827 136.084 19.656C137.001 19.2293 138.004 19.016 139.092 19.016C140.478 19.016 141.716 19.3147 142.804 19.912C143.892 20.488 144.734 21.32 145.332 22.408C145.908 21.384 146.74 20.5627 147.828 19.944C148.937 19.3253 150.132 19.016 151.412 19.016Z" fill="white"/>
<path d="M164.911 37.224C164.1 37.224 163.428 36.9787 162.895 36.488C162.383 35.976 162.127 35.3467 162.127 34.6C162.127 33.8533 162.383 33.2347 162.895 32.744C163.428 32.232 164.1 31.976 164.911 31.976C165.7 31.976 166.351 32.232 166.863 32.744C167.375 33.2347 167.631 33.8533 167.631 34.6C167.631 35.3467 167.375 35.976 166.863 36.488C166.351 36.9787 165.7 37.224 164.911 37.224Z" fill="#E9A800"/>
<circle cx="26" cy="26" r="26" fill="#242424"/>
<path d="M33.88 24.2933H29.76V14.6933C29.76 12.4533 28.5467 12 27.0667 13.68L26 14.8933L16.9733 25.16C15.7333 26.56 16.2533 27.7067 18.12 27.7067H22.24V37.3067C22.24 39.5467 23.4533 40 24.9333 38.32L26 37.1067L35.0267 26.84C36.2667 25.44 35.7467 24.2933 33.88 24.2933Z" fill="#E9A800"/>
</svg>
